<svg width="36" height="36" viewBox="0 0 36 36" fill="none" xmlns="http://www.w3.org/2000/svg">
<path d="M17.8017 28.0677C17.5543 28.2094 17.271 28.2802 16.9517 28.2802C16.6245 28.2802 16.3651 28.2133 16.1735 28.0795C15.9899 27.9378 15.8982 27.7489 15.8982 27.5127C15.8982 27.0168 16.2813 26.7689 17.0475 26.7689H18.3285V27.4183C18.2247 27.7016 18.0491 27.9181 17.8017 28.0677Z" fill="#E42A4B"/>
<path fill-rule="evenodd" clip-rule="evenodd" d="M36 18.5686H26.5914C26.6792 18.9621 26.8867 19.2731 27.2139 19.5014C27.5412 19.7296 27.9482 19.8438 28.4351 19.8438C28.7703 19.8438 29.0656 19.7965 29.321 19.7021C29.5844 19.5998 29.8278 19.4423 30.0513 19.2298L31.045 20.2925C30.4384 20.9773 29.5525 21.3197 28.3872 21.3197C27.6609 21.3197 27.0184 21.182 26.4597 20.9065C25.901 20.6231 25.47 20.2334 25.1667 19.7375C24.9494 19.3822 24.81 18.9926 24.7484 18.5686H23.4604V23.7461C23.9313 23.2345 24.6736 22.9786 25.4957 22.9786C26.0943 22.9786 26.637 23.1164 27.1239 23.3919C27.6187 23.6595 28.0058 24.0413 28.2852 24.5372C28.5645 25.0253 28.7042 25.596 28.7042 26.2493C28.7042 26.9027 28.5645 27.4773 28.2852 27.9732C28.0058 28.4613 27.6187 28.843 27.1239 29.1185C26.637 29.3862 26.0943 29.52 25.4957 29.52C24.6098 29.52 23.9353 29.2445 23.4724 28.6935V29.4255H21.6886V20.4696C21.4412 20.7451 21.1459 20.9576 20.8027 21.1072C20.4595 21.2489 20.0883 21.3197 19.6893 21.3197C18.8432 21.3197 18.1728 21.0796 17.678 20.5995C17.1831 20.1193 16.9357 19.4069 16.9357 18.4623V16.4604C16.159 16.4568 15.4296 16.455 15.3953 16.455C14.8606 16.455 14.4416 16.6046 14.1383 16.9037C13.835 17.195 13.6833 17.6358 13.6833 18.2261V22.7189H10.9039V29.4255H8.96442V22.7189H0.625048C2.69884 30.3711 9.69411 36 18.0044 36C27.7577 36 35.6996 28.2466 36 18.5686ZM19.394 23.6871C18.8592 23.2148 18.093 22.9786 17.0954 22.9786C16.5766 22.9786 16.0698 23.0456 15.5749 23.1794C15.0881 23.3132 14.669 23.5021 14.3179 23.7461L14.9883 25.0332C15.2197 24.8521 15.4991 24.7104 15.8263 24.6081C16.1615 24.4979 16.5008 24.4428 16.844 24.4428C17.3388 24.4428 17.7099 24.553 17.9573 24.7734C18.2048 24.9859 18.3285 25.2929 18.3285 25.6944H16.844C15.9022 25.6944 15.2038 25.8636 14.7488 26.2021C14.3019 26.5406 14.0784 27.005 14.0784 27.5954C14.0784 27.9653 14.1742 28.296 14.3657 28.5872C14.5573 28.8785 14.8327 29.1067 15.1918 29.272C15.559 29.4373 15.9899 29.52 16.4848 29.52C17.4425 29.52 18.097 29.2248 18.4482 28.6344V29.4255H20.1961V25.8006C20.1961 24.856 19.9287 24.1515 19.394 23.6871Z" fill="#E42A4B"/>
<path d="M0.276583 21.1603C0.0948215 20.1343 0 19.0782 0 18C0 8.05888 8.06085 0 18.0044 0C27.7068 0 35.6166 7.67266 35.9947 17.28H31.4211C31.3491 16.938 31.2277 16.6237 31.057 16.3369C30.7696 15.8332 30.3706 15.4474 29.8598 15.1798C29.349 14.9122 28.7783 14.7784 28.1478 14.7784C27.5013 14.7784 26.9146 14.92 26.3879 15.2034C25.8691 15.4789 25.4581 15.8686 25.1548 16.3724C24.9867 16.6545 24.8665 16.9571 24.7941 17.28H23.4604V14.7784H21.5928V18.0136C21.5928 18.5804 21.4571 19.0094 21.1858 19.3006C20.9144 19.584 20.5552 19.7257 20.1083 19.7257C19.2383 19.7257 18.8033 19.214 18.8033 18.1907V16.4784L18.8074 16.4786V14.7784C18.3125 14.7784 14.8805 14.8571 14.4974 15.0145C14.1223 15.1719 13.823 15.4042 13.5995 15.7111V12.96H3.60097V14.5186H6.2827V21.1603H0.276583Z" fill="#E42A4B"/>
<path d="M8.22216 21.1603V14.5186H11.8157V21.1603H8.22216Z" fill="#E42A4B"/>
<path d="M29.6932 17.28H26.6132C26.6986 16.9706 26.859 16.7192 27.0942 16.5259C27.3816 16.2897 27.7367 16.1716 28.1597 16.1716C28.5748 16.1716 28.9259 16.2937 29.2133 16.5377C29.4475 16.7302 29.6075 16.9776 29.6932 17.28Z" fill="#E42A4B"/>
<path d="M25.1724 28.0086C25.6513 28.0086 26.0424 27.8512 26.3457 27.5363C26.657 27.2136 26.8126 26.7846 26.8126 26.2493C26.8126 25.714 26.657 25.289 26.3457 24.9741C26.0424 24.6514 25.6513 24.49 25.1724 24.49C24.6936 24.49 24.2985 24.6514 23.9872 24.9741C23.6839 25.289 23.5323 25.714 23.5323 26.2493C23.5323 26.7846 23.6839 27.2136 23.9872 27.5363C24.2985 27.8512 24.6936 28.0086 25.1724 28.0086Z" fill="#E42A4B"/>
</svg>
