<svg width="36" height="36" viewBox="0 0 36 36" fill="none" xmlns="http://www.w3.org/2000/svg">
<path fill-rule="evenodd" clip-rule="evenodd" d="M36 18.0002C36 27.9414 27.9411 36.0002 18 36.0002C8.05887 36.0002 0 27.9414 0 18.0002C0 8.05912 8.05887 0.000244141 18 0.000244141C27.9411 0.000244141 36 8.05912 36 18.0002ZM16.9258 22.4212C15.2513 22.2465 13.7415 21.8341 12.4488 20.8231C12.4167 20.7979 12.3843 20.7729 12.352 20.7478L12.3519 20.7478C12.2228 20.6479 12.0935 20.5479 11.9765 20.4356C11.4107 19.8922 11.3537 19.2699 11.8014 18.6285C12.1844 18.0797 12.8273 17.9329 13.4956 18.248C13.625 18.3091 13.7483 18.3853 13.8664 18.4672C16.2754 20.1225 19.5848 20.1682 22.0029 18.5417C22.2425 18.358 22.4986 18.2082 22.7954 18.1317C23.3725 17.9836 23.9107 18.1955 24.2204 18.7005C24.5742 19.2771 24.5697 19.8399 24.1337 20.2876C23.465 20.974 22.6608 21.4706 21.7672 21.8171C20.9223 22.1447 19.9968 22.3096 19.0808 22.4191L19.1736 22.5205L19.1737 22.5206C19.2536 22.608 19.3062 22.6656 19.3706 22.7304C19.8238 23.1857 20.2777 23.6404 20.7316 24.095C21.5235 24.8882 22.3153 25.6813 23.1033 26.478C23.5256 26.9051 23.6139 27.4347 23.3813 27.9315C23.127 28.4744 22.5579 28.8317 21.9998 28.7934C21.6462 28.769 21.3704 28.593 21.1254 28.3462C20.8178 28.0367 20.5084 27.729 20.1989 27.4214L20.1988 27.4213C19.5639 26.7902 18.9292 26.1592 18.311 25.5123C18.0433 25.2324 17.9146 25.2854 17.6784 25.5283C16.7342 26.5004 15.7746 27.4576 14.8093 28.4093C14.3758 28.8366 13.86 28.9135 13.3574 28.6694C12.823 28.4104 12.483 27.865 12.5092 27.3169C12.5273 26.9461 12.7097 26.6628 12.9642 26.4088C13.956 25.4185 14.9455 24.4261 15.9349 23.4339L16.6505 22.7164C16.7005 22.666 16.7484 22.6137 16.8055 22.5515L16.8055 22.5514C16.8411 22.5125 16.8803 22.4698 16.9258 22.4212ZM12.516 12.6546C12.4986 15.6466 14.9481 18.123 17.9354 18.1332C20.953 18.1436 23.4195 15.7235 23.4349 12.7376C23.45 9.68108 21.0238 7.20824 18.001 7.20009C14.9843 7.19172 12.5332 9.6295 12.516 12.6546ZM17.9793 9.99214C19.4619 9.9935 20.6451 11.1762 20.6503 12.6618C20.6553 14.1472 19.4753 15.3376 17.9931 15.3428C16.5063 15.3482 15.313 14.1739 15.3019 12.6939C15.2904 11.1947 16.4842 9.99056 17.9793 9.99214Z" fill="#84909A"/>
</svg>
