<svg width="36" height="36" viewBox="0 0 36 36" fill="none" xmlns="http://www.w3.org/2000/svg">
<path fill-rule="evenodd" clip-rule="evenodd" d="M18 36.0002C27.9411 36.0002 36 27.9414 36 18.0002C36 8.05912 27.9411 0.000244141 18 0.000244141C8.05887 0.000244141 0 8.05912 0 18.0002C0 27.9414 8.05887 36.0002 18 36.0002ZM29.9196 24.0881C29.9656 24.2031 29.9914 24.352 29.9983 24.4765C30.0277 25.003 29.5152 25.1692 29.1234 25.1896C28.97 25.1975 28.8164 25.197 28.6628 25.1964C28.5777 25.196 28.4927 25.1957 28.4076 25.1968C28.0651 25.2014 27.7226 25.2004 27.3801 25.1993L27.3483 25.1992C27.2888 25.199 27.2282 25.1992 27.1668 25.1994C26.5745 25.2013 25.9051 25.2034 25.3907 24.8795C25.155 24.7311 24.9938 24.5142 24.8307 24.2948C24.7562 24.1945 24.6813 24.0937 24.5988 23.9987C24.1783 23.5149 23.6077 22.902 22.8569 22.1923C22.1062 21.4827 21.0851 20.7084 20.5145 21.0633C20.2366 21.2361 20.2721 22.0285 20.3089 22.8482C20.3475 23.7118 20.3876 24.6058 20.064 24.8375C19.4334 25.2891 17.3913 25.3536 15.5294 24.6762C15.0468 24.5005 14.5835 24.2695 14.1428 23.9956C12.5583 23.011 11.2132 21.536 10.0739 20.0139C8.94651 18.5077 8.10565 16.8426 7.28913 15.129C6.9455 14.4077 6.61257 13.6775 6.34247 12.9202C6.32465 12.8702 6.30622 12.8206 6.2878 12.771C6.25132 12.6728 6.21488 12.5748 6.18332 12.4741C6.1801 12.4639 6.17687 12.4536 6.17362 12.4433C6.0711 12.1176 5.95546 11.7502 6.01645 11.4053C6.12297 10.8028 6.67036 10.8019 7.12442 10.8011C7.13585 10.8011 7.14723 10.8011 7.15853 10.801C7.3535 10.8005 7.54846 10.8007 7.74343 10.8011C8.17502 10.802 8.60661 10.8014 9.03821 10.8009C9.27107 10.8006 9.50394 10.8003 9.73682 10.8003C9.74475 10.8003 9.7527 10.8003 9.76066 10.8003C9.93243 10.8001 10.1094 10.7999 10.27 10.8731C10.5756 11.0123 10.7127 11.3857 10.8287 11.7016C10.8397 11.7313 10.8504 11.7605 10.861 11.789C10.9678 12.0739 11.0781 12.3573 11.1895 12.6403C11.2738 12.8545 11.3557 13.0698 11.4376 13.2851C11.4594 13.3422 11.4811 13.3993 11.5029 13.4564C11.866 14.4085 12.2737 15.3172 12.7797 16.1919C13.2664 17.0333 13.8173 17.8447 14.4858 18.531C15.3342 19.402 15.4656 18.3496 15.4656 18.3496V13.6562C15.4656 12.8999 15.1557 12.5344 14.8611 12.187C14.6892 11.9842 14.5226 11.7876 14.4257 11.5231C14.163 10.8054 14.9062 10.802 14.9062 10.802H18.0664H19.929C20.2594 10.802 20.2893 11.1764 20.2893 11.1764V16.886C20.2893 17.7408 20.4245 17.7731 20.8149 17.6601C21.2053 17.5472 23.1573 14.7891 23.3825 14.386C23.4485 14.2679 23.5155 14.1504 23.5825 14.033C23.5952 14.0107 23.608 13.9884 23.6207 13.966L23.6224 13.963C23.8138 13.627 24.0051 13.2911 24.1909 12.9515C24.3102 12.7334 24.4316 12.5167 24.5556 12.3018C24.6286 12.1753 24.6997 12.0474 24.7709 11.9195C24.8767 11.7293 24.9826 11.5391 25.0944 11.3533C25.2473 11.0994 25.4336 10.8476 25.7376 10.8197C25.9312 10.8019 26.1268 10.8017 26.3213 10.8015C26.3414 10.8015 26.3615 10.8014 26.3817 10.8014C26.4924 10.8012 26.6031 10.802 26.7139 10.8028C26.8122 10.8035 26.9104 10.8043 27.0087 10.8043H28.6079C28.7265 10.8043 28.853 10.8072 28.9689 10.8366C29.1812 10.8903 29.2952 11.0816 29.3456 11.2993C29.4208 11.6243 29.3106 11.8886 29.1891 12.1786C28.9175 12.8273 28.5989 13.4529 28.2601 14.0637C27.9727 14.5817 27.6818 15.1 27.3616 15.5956C27.1238 15.9637 26.8551 16.3988 26.6056 16.8025C26.3195 17.2656 26.0589 17.6875 25.8994 17.9202C25.601 18.3557 25.6348 18.4988 25.7399 18.8214C25.8146 19.0506 26.6476 19.9397 27.2636 20.597C27.5144 20.8647 27.7291 21.0939 27.8421 21.2246C27.8794 21.2677 27.9178 21.3119 27.9575 21.3575C28.3338 21.7905 28.825 22.3557 29.5313 23.3697C29.6812 23.5849 29.8206 23.8412 29.9196 24.0881Z" fill="#84909A"/>
</svg>
